<?xml version="1.0" encoding="UTF-8" standalone="no"?>
<!-- Created with Inkscape (http://www.inkscape.org/) -->

<svg
   width="15.083mm"
   height="16.101999mm"
   viewBox="0 0 45.249001 48.305998"
   version="1.1"
   id="svg1"
   inkscape:version="1.3.2 (091e20e, 2023-11-25, custom)"
   sodipodi:docname="CamLogo.svg"
   xmlns:inkscape="http://www.inkscape.org/namespaces/inkscape"
   xmlns:sodipodi="http://sodipodi.sourceforge.net/DTD/sodipodi-0.dtd"
   xmlns="http://www.w3.org/2000/svg"
   xmlns:svg="http://www.w3.org/2000/svg">
  <sodipodi:namedview
     id="namedview1"
     pagecolor="#ffffff"
     bordercolor="#000000"
     borderopacity="0.25"
     inkscape:showpageshadow="2"
     inkscape:pageopacity="0.0"
     inkscape:pagecheckerboard="0"
     inkscape:deskcolor="#d1d1d1"
     inkscape:document-units="mm"
     inkscape:zoom="0.94786756"
     inkscape:cx="120.26997"
     inkscape:cy="270.07993"
     inkscape:window-width="1248"
     inkscape:window-height="770"
     inkscape:window-x="-6"
     inkscape:window-y="-6"
     inkscape:window-maximized="1"
     inkscape:current-layer="layer1" />
  <defs
     id="defs1">
    <inkscape:path-effect
       effect="spiro"
       id="path-effect2"
       is_visible="true"
       lpeversion="1" />
    <inkscape:path-effect
       effect="spiro"
       id="path-effect2-3"
       is_visible="true"
       lpeversion="1" />
    <clipPath
       clipPathUnits="userSpaceOnUse"
       id="clipPath3">
      <text
         xml:space="preserve"
         style="font-size:73.819px;fill:#fdf8f3;fill-opacity:1;stroke-width:6.15156"
         x="36.744141"
         y="58.486629"
         id="text3"
         inkscape:label="text1"
         transform="scale(1.0916499,0.9160446)"><tspan
           sodipodi:role="line"
           id="tspan3"
           style="font-style:normal;font-variant:normal;font-weight:normal;font-stretch:normal;font-size:73.819px;font-family:'Berlin Sans FB';-inkscape-font-specification:'Berlin Sans FB, Normal';font-variant-ligatures:normal;font-variant-caps:normal;font-variant-numeric:normal;font-variant-east-asian:normal;fill:#fdf8f3;fill-opacity:1;stroke-width:6.15156"
           x="36.744141"
           y="58.486629">C</tspan></text>
    </clipPath>
    <clipPath
       clipPathUnits="userSpaceOnUse"
       id="clipPath4">
      <text
         xml:space="preserve"
         style="font-size:85.5229px;fill:#fdf8f3;fill-opacity:1;stroke-width:7.12689"
         x="21.47987"
         y="90.217072"
         id="text4"
         inkscape:label="text1"
         transform="scale(1.5135336,0.66070553)"><tspan
           sodipodi:role="line"
           id="tspan4"
           style="font-style:normal;font-variant:normal;font-weight:normal;font-stretch:normal;font-size:85.5229px;font-family:'Berlin Sans FB';-inkscape-font-specification:'Berlin Sans FB, Normal';font-variant-ligatures:normal;font-variant-caps:normal;font-variant-numeric:normal;font-variant-east-asian:normal;fill:#fdf8f3;fill-opacity:1;stroke-width:7.12689"
           x="21.47987"
           y="90.217072">C</tspan></text>
    </clipPath>
  </defs>
  <g
     inkscape:label="Layer 1"
     inkscape:groupmode="layer"
     id="layer1">
    <text
       xml:space="preserve"
       style="font-size:73.819px;fill:#fdf8f3;fill-opacity:1;stroke-width:6.15157"
       x="-2.0545328"
       y="51.687717"
       id="text1-3-6"
       inkscape:label="text1"
       transform="scale(1.0916499,0.9160446)"><tspan
         sodipodi:role="line"
         id="tspan1-2-4"
         style="font-style:normal;font-variant:normal;font-weight:normal;font-stretch:normal;font-size:73.819px;font-family:'Berlin Sans FB';-inkscape-font-specification:'Berlin Sans FB, Normal';font-variant-ligatures:normal;font-variant-caps:normal;font-variant-numeric:normal;font-variant-east-asian:normal;fill:#fdf8f3;fill-opacity:1;stroke-width:6.15157"
         x="-2.0545328"
         y="51.687717">C</tspan></text>
    <path
       style="fill:#ffe1c6;fill-opacity:1;stroke-width:0.264583"
       d="m 32.370072,34.738614 c 0.941925,-1.647653 2.105178,-3.187621 3.566241,-4.398934 1.461062,-1.211313 3.23434,-2.083341 5.118412,-2.311934 1.744954,-0.211713 3.52359,0.131369 5.166597,0.75604 1.643007,0.624671 3.166467,1.523714 4.655359,2.457998 1.488891,0.934284 2.956095,1.910386 4.522861,2.70721 1.566767,0.796824 3.248219,1.414863 4.998276,1.579134 2.143888,0.201238 4.304116,-0.287113 6.314354,-1.058923 2.010239,-0.77181 3.898922,-1.822701 5.81667,-2.801983 1.917748,-0.979282 3.889877,-1.896445 5.989856,-2.37272 2.099979,-0.476276 4.354914,-0.48785 6.354052,0.312272 1.673663,0.669856 3.104569,1.889911 4.12535,3.375798 1.020782,1.485887 1.640755,3.228907 1.901713,5.012654 0.521915,3.567495 -0.368744,7.20316 -1.684735,10.559882 -2.935582,7.487844 -8.118443,14.15384 -14.917597,18.449995 -6.799154,4.296154 -15.219143,6.115813 -23.108543,4.55286 -7.889399,-1.562952 -15.1144,-6.61031 -18.904272,-13.704132 -1.894935,-3.546911 -2.933777,-7.555437 -2.939207,-11.576796 -0.0054,-4.021359 1.028805,-8.047273 3.024613,-11.538421 z"
       id="path2-4"
       transform="matrix(0.62255387,0,0,1.1967248,-22.48237,-23.999537)"
       sodipodi:nodetypes="cssssc"
       inkscape:original-d="m 32.370072,34.738614 c -20.00102,-4.079155 4.210742,-2.236956 8.684653,-6.710868 4.473913,-4.473913 14.21125,2.763298 19.343093,7.500382 5.13184,4.737084 16.316621,-3.552812 24.474932,-5.921354 8.15831,-2.368542 2.894885,12.369051 4.342328,18.948334 1.44744,6.579282 -38.423013,-8.947825 -56.845006,-13.816494 z"
       inkscape:path-effect="#path-effect2-3"
       clip-path="url(#clipPath4)" />
    <path
       style="fill:#25ced1;fill-opacity:1;stroke-width:0.264583"
       d="m 32.370072,34.738614 c 0.372511,-3.424098 1.453706,-6.880605 3.745993,-9.451331 1.146143,-1.285362 2.584653,-2.324434 4.202593,-2.914409 1.617941,-0.589975 3.416483,-0.717986 5.078394,-0.266483 1.650529,0.448411 3.111949,1.443508 4.337681,2.63636 1.225732,1.192853 2.237393,2.584487 3.233984,3.974495 0.996592,1.390008 1.990092,2.792573 3.186387,4.014947 1.196294,1.222373 2.615998,2.267622 4.242714,2.795935 2.055711,0.667639 4.314905,0.465664 6.379755,-0.17315 2.06485,-0.638815 3.9729,-1.692389 5.862274,-2.742131 1.889373,-1.049742 3.792864,-2.109911 5.853039,-2.763647 2.060175,-0.653735 4.314708,-0.880252 6.379864,-0.242426 1.762991,0.544502 3.311048,1.705829 4.419659,3.18082 1.108612,1.474991 1.78734,3.251967 2.05923,5.076986 0.543781,3.650039 -0.514284,7.37591 -2.136561,10.690528 C 86.174489,54.767605 81.067095,59.962292 74.866176,63.026425 68.665258,66.090557 61.404098,66.98927 54.662924,65.441084 47.921751,63.892897 41.756522,59.892362 37.668503,54.313079 33.580483,48.733796 31.622015,41.614711 32.370072,34.738614 Z"
       id="path2"
       transform="translate(-42.354568,-6.2631675)"
       inkscape:original-d="m 32.370072,34.738614 c -20.00102,-4.079155 8.553069,-8.158311 13.02698,-12.632223 4.473913,-4.473913 9.868923,8.684653 15.000766,13.421737 5.13184,4.737084 16.316621,-3.552812 24.474932,-5.921354 8.15831,-2.368542 2.894885,12.369051 4.342328,18.948334 1.44744,6.579282 -38.423013,-8.947825 -56.845006,-13.816494 z"
       inkscape:path-effect="#path-effect2"
       clip-path="url(#clipPath3)" />
  </g>
</svg>
